<svg width="50" height="50" viewBox="0 0 50 50" fill="none" xmlns="http://www.w3.org/2000/svg">
<circle cx="25" cy="25" r="23.5" stroke="white" stroke-width="3"/>
<path d="M16.48 18C18.48 18 20.0067 18.3667 21.06 19.1C22.1267 19.8333 22.66 20.9533 22.66 22.46C22.66 24.34 21.7333 25.6133 19.88 26.28C20.1333 26.5867 20.42 26.96 20.74 27.4C21.06 27.84 21.3867 28.32 21.72 28.84C22.0533 29.3467 22.3733 29.8733 22.68 30.42C22.9867 30.9533 23.26 31.48 23.5 32H20.68C20.4267 31.52 20.1533 31.04 19.86 30.56C19.5667 30.0667 19.2667 29.5933 18.96 29.14C18.6667 28.6733 18.3733 28.24 18.08 27.84C17.7867 27.4267 17.5133 27.06 17.26 26.74C17.0733 26.7533 16.9133 26.76 16.78 26.76C16.6467 26.76 16.52 26.76 16.4 26.76H15.18V32H12.66V18.34C13.2733 18.2067 13.9267 18.12 14.62 18.08C15.3133 18.0267 15.9333 18 16.48 18ZM16.66 20.18C16.1267 20.18 15.6333 20.2 15.18 20.24V24.72H16.28C16.8933 24.72 17.4333 24.6867 17.9 24.62C18.3667 24.5533 18.7533 24.4333 19.06 24.26C19.38 24.0867 19.62 23.8533 19.78 23.56C19.94 23.2667 20.02 22.8933 20.02 22.44C20.02 22.0133 19.94 21.6533 19.78 21.36C19.62 21.0667 19.3867 20.8333 19.08 20.66C18.7867 20.4867 18.4333 20.3667 18.02 20.3C17.6067 20.22 17.1533 20.18 16.66 20.18ZM35.1608 32C34.9741 31.4533 34.7808 30.9133 34.5808 30.38C34.3808 29.8467 34.1874 29.3 34.0008 28.74H28.1608C27.9741 29.3 27.7808 29.8533 27.5808 30.4C27.3941 30.9333 27.2074 31.4667 27.0208 32H24.4008C24.9208 30.52 25.4141 29.1533 25.8808 27.9C26.3474 26.6467 26.8008 25.46 27.2408 24.34C27.6941 23.22 28.1408 22.1533 28.5808 21.14C29.0208 20.1267 29.4741 19.1267 29.9408 18.14H32.3208C32.7874 19.1267 33.2408 20.1267 33.6808 21.14C34.1208 22.1533 34.5608 23.22 35.0008 24.34C35.4541 25.46 35.9141 26.6467 36.3808 27.9C36.8608 29.1533 37.3608 30.52 37.8808 32H35.1608ZM31.0808 20.82C30.7741 21.5267 30.4208 22.3867 30.0208 23.4C29.6341 24.4133 29.2274 25.5133 28.8008 26.7H33.3608C32.9341 25.5133 32.5208 24.4067 32.1208 23.38C31.7208 22.3533 31.3741 21.5 31.0808 20.82Z" fill="white"/>
</svg>
