<svg width="45" height="45" viewBox="0 0 45 45" fill="none" xmlns="http://www.w3.org/2000/svg">
<circle cx="22.5" cy="22.5" r="21" stroke="white" stroke-width="3"/>
<path d="M16.836 18.2C18.236 18.2 19.3047 18.4567 20.042 18.97C20.7887 19.4833 21.162 20.2673 21.162 21.322C21.162 22.638 20.5133 23.5293 19.216 23.996C19.3933 24.2107 19.594 24.472 19.818 24.78C20.042 25.088 20.2707 25.424 20.504 25.788C20.7373 26.1427 20.9613 26.5113 21.176 26.894C21.3907 27.2673 21.582 27.636 21.75 28H19.776C19.5987 27.664 19.4073 27.328 19.202 26.992C18.9967 26.6467 18.7867 26.3153 18.572 25.998C18.3667 25.6713 18.1613 25.368 17.956 25.088C17.7507 24.7987 17.5593 24.542 17.382 24.318C17.2513 24.3273 17.1393 24.332 17.046 24.332C16.9527 24.332 16.864 24.332 16.78 24.332H15.926V28H14.162V18.438C14.5913 18.3447 15.0487 18.284 15.534 18.256C16.0193 18.2187 16.4533 18.2 16.836 18.2ZM16.962 19.726C16.5887 19.726 16.2433 19.74 15.926 19.768V22.904H16.696C17.1253 22.904 17.5033 22.8807 17.83 22.834C18.1567 22.7873 18.4273 22.7033 18.642 22.582C18.866 22.4607 19.034 22.2973 19.146 22.092C19.258 21.8867 19.314 21.6253 19.314 21.308C19.314 21.0093 19.258 20.7573 19.146 20.552C19.034 20.3467 18.8707 20.1833 18.656 20.062C18.4507 19.9407 18.2033 19.8567 17.914 19.81C17.6247 19.754 17.3073 19.726 16.962 19.726ZM29.9125 28C29.7819 27.6173 29.6465 27.2393 29.5065 26.866C29.3665 26.4927 29.2312 26.11 29.1005 25.718H25.0125C24.8819 26.11 24.7465 26.4973 24.6065 26.88C24.4759 27.2533 24.3452 27.6267 24.2145 28H22.3805C22.7445 26.964 23.0899 26.0073 23.4165 25.13C23.7432 24.2527 24.0605 23.422 24.3685 22.638C24.6859 21.854 24.9985 21.1073 25.3065 20.398C25.6145 19.6887 25.9319 18.9887 26.2585 18.298H27.9245C28.2512 18.9887 28.5685 19.6887 28.8765 20.398C29.1845 21.1073 29.4925 21.854 29.8005 22.638C30.1179 23.422 30.4399 24.2527 30.7665 25.13C31.1025 26.0073 31.4525 26.964 31.8165 28H29.9125ZM27.0565 20.174C26.8419 20.6687 26.5945 21.2707 26.3145 21.98C26.0439 22.6893 25.7592 23.4593 25.4605 24.29H28.6525C28.3539 23.4593 28.0645 22.6847 27.7845 21.966C27.5045 21.2473 27.2619 20.65 27.0565 20.174Z" fill="white"/>
</svg>
